<svg width="35" height="34" viewBox="0 0 35 34" fill="none" xmlns="http://www.w3.org/2000/svg">
<g id="akar-icons:instagram-fill">
<g id="Group">
<path id="Vector" fill-rule="evenodd" clip-rule="evenodd" d="M11.3253 1.51025C12.987 1.43375 13.5168 1.41675 17.7498 1.41675C21.9828 1.41675 22.5127 1.43516 24.173 1.51025C25.8333 1.58533 26.9667 1.85025 27.9583 2.23416C28.9968 2.62658 29.9388 3.24 30.718 4.03333C31.5113 4.81108 32.1233 5.75175 32.5143 6.79158C32.8997 7.78325 33.1632 8.91658 33.2397 10.5741C33.3162 12.2387 33.3332 12.7685 33.3332 17.0001C33.3332 21.2331 33.3148 21.7629 33.2397 23.4247C33.1646 25.0822 32.8997 26.2155 32.5143 27.2072C32.1233 28.2471 31.5103 29.1894 30.718 29.9682C29.9388 30.7616 28.9968 31.3736 27.9583 31.7646C26.9667 32.1499 25.8333 32.4134 24.1758 32.4899C22.5127 32.5664 21.9828 32.5834 17.7498 32.5834C13.5168 32.5834 12.987 32.565 11.3253 32.4899C9.66775 32.4148 8.53442 32.1499 7.54275 31.7646C6.50281 31.3735 5.56058 30.7605 4.78167 29.9682C3.98888 29.19 3.37537 28.2483 2.98392 27.2086C2.6 26.2169 2.3365 25.0836 2.26 23.4261C2.1835 21.7615 2.1665 21.2317 2.1665 17.0001C2.1665 12.7671 2.18492 12.2372 2.26 10.5769C2.33509 8.91658 2.6 7.78325 2.98392 6.79158C3.37594 5.75186 3.98992 4.81011 4.78309 4.03191C5.56089 3.23929 6.50217 2.62579 7.54134 2.23416C8.533 1.85025 9.66634 1.58675 11.3238 1.51025H11.3253ZM24.0469 4.31525C22.4036 4.24016 21.9106 4.22458 17.7498 4.22458C13.5891 4.22458 13.0961 4.24016 11.4528 4.31525C9.93267 4.38466 9.10817 4.63825 8.5585 4.85216C7.83175 5.1355 7.31184 5.47125 6.76642 6.01666C6.2494 6.51965 5.85151 7.13198 5.60192 7.80875C5.388 8.35841 5.13442 9.18291 5.065 10.703C4.98992 12.3463 4.97434 12.8393 4.97434 17.0001C4.97434 21.1608 4.98992 21.6538 5.065 23.2972C5.13442 24.8172 5.388 25.6417 5.60192 26.1914C5.85125 26.8672 6.24934 27.4806 6.76642 27.9835C7.26934 28.5006 7.88275 28.8987 8.5585 29.148C9.10817 29.3619 9.93267 29.6155 11.4528 29.6849C13.0961 29.76 13.5877 29.7756 17.7498 29.7756C21.912 29.7756 22.4036 29.76 24.0469 29.6849C25.567 29.6155 26.3915 29.3619 26.9412 29.148C27.6679 28.8647 28.1878 28.5289 28.7333 27.9835C29.2503 27.4806 29.6484 26.8672 29.8978 26.1914C30.1117 25.6417 30.3653 24.8172 30.4347 23.2972C30.5098 21.6538 30.5253 21.1608 30.5253 17.0001C30.5253 12.8393 30.5098 12.3463 30.4347 10.703C30.3653 9.18291 30.1117 8.35841 29.8978 7.80875C29.6144 7.082 29.2787 6.56208 28.7333 6.01666C28.2302 5.49968 27.6179 5.1018 26.9412 4.85216C26.3915 4.63825 25.567 4.38466 24.0469 4.31525ZM15.7594 21.804C16.871 22.2667 18.1088 22.3292 19.2613 21.9807C20.4138 21.6322 21.4096 20.8944 22.0786 19.8933C22.7476 18.8921 23.0482 17.6898 22.9292 16.4916C22.8102 15.2935 22.2789 14.1738 21.4261 13.3238C20.8824 12.7805 20.2251 12.3645 19.5013 12.1057C18.7776 11.8469 18.0054 11.7518 17.2405 11.8273C16.4756 11.9027 15.737 12.1468 15.0777 12.542C14.4185 12.9372 13.8551 13.4736 13.428 14.1127C13.001 14.7518 12.7209 15.4776 12.6081 16.2379C12.4952 16.9981 12.5523 17.774 12.7753 18.5096C12.9982 19.2451 13.3815 19.9221 13.8975 20.4918C14.4135 21.0614 15.0494 21.5096 15.7594 21.804ZM12.086 11.3362C12.8298 10.5925 13.7128 10.0025 14.6846 9.59993C15.6564 9.19739 16.698 8.99021 17.7498 8.99021C18.8017 8.99021 19.8433 9.19739 20.8151 9.59993C21.7869 10.0025 22.6699 10.5925 23.4137 11.3362C24.1575 12.08 24.7475 12.963 25.15 13.9348C25.5525 14.9066 25.7597 15.9482 25.7597 17.0001C25.7597 18.052 25.5525 19.0935 25.15 20.0653C24.7475 21.0371 24.1575 21.9201 23.4137 22.6639C21.9115 24.1661 19.8742 25.01 17.7498 25.01C15.6255 25.01 13.5881 24.1661 12.086 22.6639C10.5839 21.1618 9.73997 19.1244 9.73997 17.0001C9.73997 14.8757 10.5839 12.8384 12.086 11.3362ZM27.5362 10.1831C27.7205 10.0092 27.868 9.80013 27.9701 9.56821C28.0722 9.33629 28.1267 9.08625 28.1303 8.8329C28.134 8.57954 28.0869 8.32802 27.9916 8.09323C27.8963 7.85843 27.7549 7.64514 27.5758 7.46597C27.3966 7.2868 27.1833 7.1454 26.9485 7.05015C26.7137 6.95489 26.4622 6.90771 26.2089 6.91141C25.9555 6.9151 25.7055 6.96959 25.4735 7.07165C25.2416 7.17371 25.0325 7.32127 24.8587 7.50558C24.5205 7.86404 24.3354 8.34017 24.3426 8.8329C24.3498 9.32563 24.5487 9.79616 24.8971 10.1446C25.2456 10.4931 25.7161 10.692 26.2089 10.6992C26.7016 10.7064 27.1777 10.5212 27.5362 10.1831Z" fill="#FF001E"/>
</g>
</g>
</svg>
