<svg width="45" height="44" viewBox="0 0 45 44" fill="none" xmlns="http://www.w3.org/2000/svg">
<g id="ant-design:youtube-outlined">
<path id="Vector" d="M41.9999 21.8795C41.9999 21.785 41.9999 21.6776 41.9956 21.553C41.9913 21.2049 41.9827 20.8139 41.9741 20.3971C41.9397 19.1983 41.8796 18.0038 41.785 16.878C41.6561 15.3268 41.4671 14.0334 41.2093 13.0624C40.9372 12.0489 40.4039 11.1247 39.6627 10.3819C38.9215 9.63922 37.9983 9.10406 36.9854 8.82993C35.7694 8.50337 33.3889 8.30142 30.0374 8.17681C28.4432 8.11665 26.7374 8.07798 25.0315 8.05649C24.4343 8.0479 23.88 8.0436 23.3815 8.03931H22.1182C21.6198 8.0436 21.0655 8.0479 20.4682 8.05649C18.7624 8.07798 17.0565 8.11665 15.4624 8.17681C12.1108 8.30571 9.72605 8.50767 8.51433 8.82993C7.50113 9.10338 6.5776 9.63833 5.83628 10.3812C5.09496 11.124 4.56189 12.0486 4.2905 13.0624C4.02839 14.0334 3.84363 15.3268 3.71472 16.878C3.62019 18.0038 3.56003 19.1983 3.52566 20.3971C3.51277 20.8139 3.50847 21.2049 3.50417 21.553C3.50417 21.6776 3.49988 21.785 3.49988 21.8795V22.1202C3.49988 22.2147 3.49988 22.3221 3.50417 22.4467C3.50847 22.7948 3.51707 23.1858 3.52566 23.6026C3.56003 24.8014 3.62019 25.9959 3.71472 27.1217C3.84363 28.6729 4.03269 29.9663 4.2905 30.9374C4.8405 32.9956 6.45613 34.6198 8.51433 35.1698C9.72605 35.4963 12.1108 35.6983 15.4624 35.8229C17.0565 35.8831 18.7624 35.9217 20.4682 35.9432C21.0655 35.9518 21.6198 35.9561 22.1182 35.9604H23.3815C23.88 35.9561 24.4343 35.9518 25.0315 35.9432C26.7374 35.9217 28.4432 35.8831 30.0374 35.8229C33.3889 35.694 35.7737 35.492 36.9854 35.1698C39.0436 34.6198 40.6593 32.9999 41.2093 30.9374C41.4714 29.9663 41.6561 28.6729 41.785 27.1217C41.8796 25.9959 41.9397 24.8014 41.9741 23.6026C41.987 23.1858 41.9913 22.7948 41.9956 22.4467C41.9956 22.3221 41.9999 22.2147 41.9999 22.1202V21.8795ZM38.9061 22.103C38.9061 22.1932 38.9061 22.292 38.9018 22.4081C38.8975 22.7432 38.8889 23.1127 38.8803 23.5124C38.8503 24.6553 38.7901 25.7983 38.6999 26.8596C38.5839 28.2432 38.4206 29.3776 38.2186 30.1381C37.9522 31.1307 37.1702 31.917 36.1819 32.1792C35.2796 32.4198 33.0065 32.6131 29.9171 32.7291C28.353 32.7893 26.6686 32.828 24.9885 32.8495C24.3999 32.8581 23.8542 32.8624 23.3643 32.8624H22.1354L20.5112 32.8495C18.8311 32.828 17.1511 32.7893 15.5827 32.7291C12.4932 32.6088 10.2159 32.4198 9.31785 32.1792C8.32957 31.9127 7.54753 31.1307 7.28113 30.1381C7.07917 29.3776 6.91589 28.2432 6.79988 26.8596C6.70964 25.7983 6.65378 24.6553 6.61941 23.5124C6.60652 23.1127 6.60222 22.7389 6.59793 22.4081C6.59793 22.292 6.59363 22.1889 6.59363 22.103V21.8967C6.59363 21.8065 6.59363 21.7077 6.59793 21.5917C6.60222 21.2565 6.61082 20.887 6.61941 20.4874C6.64949 19.3444 6.70964 18.2014 6.79988 17.1401C6.91589 15.7565 7.07917 14.6221 7.28113 13.8616C7.54753 12.869 8.32957 12.0827 9.31785 11.8206C10.2202 11.5799 12.4932 11.3866 15.5827 11.2706C17.1468 11.2104 18.8311 11.1717 20.5112 11.1502C21.0999 11.1417 21.6456 11.1374 22.1354 11.1374H23.3643L24.9885 11.1502C26.6686 11.1717 28.3487 11.2104 29.9171 11.2706C33.0065 11.3909 35.2839 11.5799 36.1819 11.8206C37.1702 12.087 37.9522 12.869 38.2186 13.8616C38.4206 14.6221 38.5839 15.7565 38.6999 17.1401C38.7901 18.2014 38.846 19.3444 38.8803 20.4874C38.8932 20.887 38.8975 21.2608 38.9018 21.5917C38.9018 21.7077 38.9061 21.8108 38.9061 21.8967V22.103ZM18.9257 27.7577L28.8944 21.9569L18.9257 16.242V27.7577Z" fill="#FF001E"/>
</g>
</svg>
